# xmcd
#
# Track frame offsets: 
#        150
#        28914
#        55019
#        84398
#        105906
#        149053
#        177304
#        206772
#        239220
#
# Disc length: 3550 seconds
#
# Revision: 1
# Processed by: cddbd v1.5.2PL0 Copyright (c) Steve Scherf et al.
# Submitted via: ExactAudioCopy v0.99pb5
#
DISCID=810ddc09
DTITLE=Charlie Rouse - Red Rodney - Social Call
DYEAR=1984
DGENRE=Jazz
TTITLE0=Little Chico
TTITLE1=Social Call
TTITLE2=Half Nelson
TTITLE3=Greenhouse
TTITLE4=Darn That Dream (Take 1)
TTITLE5=Casbah
TTITLE6=Social Call (Alt)
TTITLE7=Darn That Dream (Take 2)
TTITLE8=Half Nelson (Alt)
EXTD=YEAR: 1984
EXTT0=
EXTT1=
EXTT2=
EXTT3=
EXTT4=
EXTT5=
EXTT6=
EXTT7=
EXTT8=
PLAYORDER=
